<svg width="75" height="71" viewBox="0 0 75 71" fill="none" xmlns="http://www.w3.org/2000/svg">
<path d="M65.9016 71H8.97555C4.48421 71 0.843262 67.8212 0.843262 63.9V14.2C0.843262 10.2788 4.48421 7.1 8.97555 7.1H17.1078V0H25.2401V7.1H49.637V0H57.7693V7.1H65.9016C70.3929 7.1 74.0339 10.2788 74.0339 14.2V63.9C74.0339 67.8212 70.3929 71 65.9016 71ZM8.97555 28.4V63.9H65.9016V28.4H8.97555ZM8.97555 14.2V21.3H65.9016V14.2H8.97555ZM57.7693 56.8H49.637V49.7H57.7693V56.8ZM41.5047 56.8H33.3724V49.7H41.5047V56.8ZM25.2401 56.8H17.1078V49.7H25.2401V56.8ZM57.7693 42.6H49.637V35.5H57.7693V42.6ZM41.5047 42.6H33.3724V35.5H41.5047V42.6ZM25.2401 42.6H17.1078V35.5H25.2401V42.6Z" fill="black"/>
</svg>
