<svg width="66" height="68" viewBox="0 0 66 68" fill="none" xmlns="http://www.w3.org/2000/svg">
<path d="M32.7194 3.44794C31.0872 3.44794 29.7593 4.83716 29.7593 6.54473C29.7593 8.2523 31.0872 9.64152 32.7194 9.64152C34.3517 9.64152 35.6796 8.2523 35.6796 6.54473C35.6796 4.83716 34.3517 3.44794 32.7194 3.44794ZM32.7194 7.6492C32.1372 7.6492 31.6636 7.15367 31.6636 6.54459C31.6636 5.93552 32.1372 5.43999 32.7194 5.43999C33.3017 5.43999 33.7753 5.93552 33.7753 6.54459C33.7753 7.15367 33.3017 7.6492 32.7194 7.6492Z" fill="black"/>
<path d="M23.9414 10.8808C23.4156 10.8808 22.9893 11.3268 22.9893 11.8769V13.5389C22.9893 14.089 23.4156 14.535 23.9414 14.535C24.4672 14.535 24.8936 14.089 24.8936 13.5389V11.8769C24.8936 11.3268 24.4672 10.8808 23.9414 10.8808Z" fill="black"/>
<path d="M41.4971 10.8808C40.9712 10.8808 40.5449 11.3268 40.5449 11.8769V13.5389C40.5449 14.089 40.9712 14.535 41.4971 14.535C42.0229 14.535 42.4492 14.089 42.4492 13.5389V11.8769C42.4492 11.3268 42.0229 10.8808 41.4971 10.8808Z" fill="black"/>
<path d="M35.5123 12.6733C35.1165 12.3112 34.515 12.3535 34.1688 12.7676C33.8171 13.1884 33.2889 13.4298 32.7192 13.4298C32.1496 13.4298 31.6212 13.1885 31.2697 12.7676C30.9236 12.3535 30.3221 12.3112 29.9261 12.6733C29.5302 13.0355 29.4898 13.6646 29.8359 14.0789C30.5492 14.9326 31.6001 15.4222 32.7192 15.4222C33.8383 15.4222 34.8892 14.9325 35.6026 14.0789C35.9487 13.6646 35.9083 13.0353 35.5123 12.6733Z" fill="black"/>
<path d="M43.2148 40.0397H22.2241C21.6983 40.0397 21.272 40.4857 21.272 41.0358C21.272 41.5861 21.6983 42.0319 22.2241 42.0319H43.2148C43.7407 42.0319 44.167 41.5861 44.167 41.0358C44.167 40.4857 43.7407 40.0397 43.2148 40.0397Z" fill="black"/>
<path d="M43.2148 46.0524H22.2241C21.6983 46.0524 21.272 46.4984 21.272 47.0485C21.272 47.5988 21.6983 48.0446 22.2241 48.0446H43.2148C43.7407 48.0446 44.167 47.5988 44.167 47.0485C44.167 46.4984 43.7407 46.0524 43.2148 46.0524Z" fill="black"/>
<path d="M43.2148 52.0653H22.2241C21.6983 52.0653 21.272 52.5113 21.272 53.0614C21.272 53.6115 21.6983 54.0575 22.2241 54.0575H43.2148C43.7407 54.0575 44.167 53.6115 44.167 53.0614C44.167 52.5113 43.7407 52.0653 43.2148 52.0653Z" fill="black"/>
<path d="M38.1049 26.7984H35.6796V24.2611C35.6796 23.7109 35.2533 23.265 34.7275 23.265H30.7114C30.1856 23.265 29.7593 23.7109 29.7593 24.2611V26.7984H27.334C26.8081 26.7984 26.3818 27.2443 26.3818 27.7945V31.996C26.3818 32.5461 26.8081 32.9921 27.334 32.9921H29.7593V35.5293C29.7593 36.0794 30.1856 36.5254 30.7114 36.5254H34.7275C35.2533 36.5254 35.6796 36.0794 35.6796 35.5293V32.9921H38.1049C38.6308 32.9921 39.0571 32.5461 39.0571 31.996V27.7945C39.0571 27.2443 38.6308 26.7984 38.1049 26.7984ZM37.1528 30.9999H34.7275C34.2016 30.9999 33.7753 31.4457 33.7753 31.996V34.5332H31.6636V31.996C31.6636 31.4457 31.2373 30.9999 30.7114 30.9999H28.2861V28.7905H30.7114C31.2373 28.7905 31.6636 28.3446 31.6636 27.7945V25.2572H33.7753V27.7945C33.7753 28.3446 34.2016 28.7905 34.7275 28.7905H37.1528V30.9999Z" fill="black"/>
<path d="M52.1077 10.4554H48.0399V8.88994C48.0399 7.23775 46.755 5.89355 45.1757 5.89355H39.236C38.7733 2.56501 36.027 0 32.719 0C29.411 0 26.6649 2.56501 26.202 5.89355H20.2624C18.6831 5.89355 17.3982 7.23775 17.3982 8.88994V10.4554H13.3304C10.2796 10.4554 7.79736 13.052 7.79736 16.2436V62.2118C7.79736 65.4034 10.2794 68 13.3304 68H17.9019C18.4278 68 18.8541 67.554 18.8541 67.0039C18.8541 66.4538 18.4278 66.0078 17.9019 66.0078H13.3304C11.3296 66.0078 9.70166 64.3049 9.70166 62.2118V16.2436C9.70166 14.1505 11.3295 12.4476 13.3304 12.4476H17.3982V15.0303H13.3304C12.6908 15.0303 12.1705 15.5745 12.1705 16.2436V62.2118C12.1705 62.8809 12.6908 63.4251 13.3304 63.4251H52.1077C52.7473 63.4251 53.2675 62.8809 53.2675 62.2118V16.2436C53.2675 15.5745 52.7472 15.0303 52.1077 15.0303H48.0399V12.4476H52.1077C54.1085 12.4476 55.7364 14.1505 55.7364 16.2436V62.2118C55.7364 64.3049 54.1086 66.0078 52.1077 66.0078H21.7105C21.1847 66.0078 20.7584 66.4538 20.7584 67.0039C20.7584 67.554 21.1847 68 21.7105 68H52.1077C55.1585 68 57.6407 65.4034 57.6407 62.2118V16.2436C57.6407 13.052 55.1586 10.4554 52.1077 10.4554ZM51.3632 17.0226V61.433H14.0748V17.0224H17.3982V17.2355C17.3982 18.8877 18.6831 20.2319 20.2624 20.2319H38.7223C39.2481 20.2319 39.6744 19.7859 39.6744 19.2358C39.6744 18.6857 39.2481 18.2397 38.7223 18.2397H20.2624C19.7331 18.2397 19.3025 17.7892 19.3025 17.2355V8.88994C19.3025 8.33624 19.7331 7.88574 20.2624 7.88574H27.0856C27.6114 7.88574 28.0378 7.43976 28.0378 6.88965C28.0376 4.18917 30.1377 1.99219 32.719 1.99219C35.3004 1.99219 37.4004 4.18917 37.4004 6.88965C37.4004 7.43976 37.8267 7.88574 38.3526 7.88574H45.1757C45.7049 7.88574 46.1356 8.33624 46.1356 8.88994V17.2356C46.1356 17.7893 45.7049 18.2398 45.1757 18.2398H42.5309C42.005 18.2398 41.5787 18.6858 41.5787 19.2359C41.5787 19.786 42.005 20.232 42.5309 20.232H45.1757C46.755 20.232 48.0399 18.8878 48.0399 17.2356V17.0226H51.3632Z" fill="black"/>
</svg>
