<svg width="74" height="82" viewBox="0 0 74 82" fill="none" xmlns="http://www.w3.org/2000/svg">
<path fill-rule="evenodd" clip-rule="evenodd" d="M19.9809 12.3021C20.1494 20.5896 23.3698 28.7181 28.358 33.0833C34.1233 38.856 43.3925 37.0542 48.7465 30.4818C53.9661 24.073 53.7295 18.9061 53.7295 11.2707C53.7295 3.82333 45.0866 -1.60944 37.4578 0.433994C27.9984 -1.44009 19.9809 2.98777 19.9809 12.3021ZM26.2767 69.4194C26.2767 74.6815 17.9643 74.59 17.9643 69.6501C17.9643 66.1263 20.0305 69.6757 17.9935 63.8519C16.1312 58.5246 15.5033 49.5827 17.2328 44.0466C17.4479 43.3586 17.8935 42.2572 17.9643 41.4843C15.3969 41.6804 9.42671 43.8503 7.38343 45.1766C5.84645 46.1735 4.80602 47.0007 3.93994 48.7148C1.64851 53.2402 0.671251 60.0365 0.0356724 65.2223C-0.439144 69.0979 3.98296 69.4133 3.98296 73.7289C3.98296 74.7558 5.54508 76.0368 6.75555 76.0368L28.5024 82L52.575 81.696C53.3383 81.696 61.985 78.2832 62.3444 77.739C63.1876 76.4591 64.4078 77.7739 64.2862 76.4429C64.0761 74.15 74.3407 71.0925 73.9913 68.8575C73.8203 67.7736 73.6949 66.7317 73.629 65.7256C73.5504 64.5281 73.2885 63.485 73.1696 62.4533C72.6975 58.3803 71.8112 54.4223 70.4516 50.6314C68.9248 46.381 66.7853 45.1939 62.6328 43.4823C61.3619 42.9578 57.9653 41.8263 56.5019 41.7151C57.1932 43.0355 56.5234 49.2552 55.9979 50.2576C63.4201 53.8572 61.2795 57.9509 61.0352 62.7248C60.8794 65.7731 60.6593 74.7288 55.9979 74.7288C54.9448 74.7288 52.4722 74.9783 52.4722 73.5753C52.4722 71.7419 53.5103 72.4011 55.1863 72.1387C56.3663 71.9553 56.4269 71.5597 56.5891 71.3474C57.8373 69.7033 58.1222 64.9517 58.2576 62.7177C58.4109 60.173 59.207 57.7492 58.2309 55.5976C56.8497 52.5516 51.7668 50.6383 48.1248 54.3538C47.0334 55.4665 46.6725 56.8925 46.0826 58.4835C44.814 61.9054 42.8998 64.8296 42.8998 68.2654C42.8998 71.0027 45.671 68.9327 45.671 71.728C45.671 73.7762 39.8779 72.4254 39.8779 68.4954C39.8779 65.7104 41.5539 62.0565 42.6097 59.457C43.0365 58.4069 43.3542 57.6886 43.7505 56.5783C44.4555 54.5998 45.2682 52.966 46.8154 51.7685C48.7067 50.3064 49.8687 49.7957 53.2262 49.7957C54.0338 46.6197 54.2872 43.9752 53.4782 40.7924C51.6362 40.6508 49.6459 39.5368 47.9369 39.4068C47.6126 40.6832 46.9483 42.2591 46.4619 43.3648C44.8402 47.0559 43.7212 49.2886 41.5335 52.6989L40.3815 54.413C40.3815 53.053 39.8143 51.1743 39.5534 49.6286C38.8522 45.4548 39.4321 47.9182 40.1283 45.1775C38.9597 44.4604 37.8849 43.272 36.8544 42.6386C35.5176 43.2872 34.6669 44.3558 33.3274 45.1775C34.8567 48.098 34.3427 47.432 33.7236 50.8506C33.5099 52.0317 33.1729 53.3581 33.0769 54.413C33.0364 54.3711 32.9818 54.248 32.9667 54.2829L32.0234 52.8394C29.9674 49.7029 26.048 42.4577 25.7722 39.4068C25.0393 39.4207 21.9893 40.1563 21.483 40.7843C19.7714 42.8974 18.7992 50.9666 19.1852 54.2156C19.5713 57.4588 19.5385 60.3077 20.8739 63.5196C22.388 67.1572 20.6067 65.0581 23.7717 66.1732C24.874 66.5626 26.2767 68.0513 26.2767 69.4194Z" fill="black"/>
</svg>
