<svg width="74" height="71" viewBox="0 0 74 71" fill="none" xmlns="http://www.w3.org/2000/svg">
<g clip-path="url(#clip0)">
<path d="M44.7083 71C43.6816 71 42.7165 70.5089 42.143 69.6836L36.8921 62.125H30.8333C29.1313 62.125 27.75 60.7997 27.75 59.1667C27.75 57.5337 29.1313 56.2083 30.8333 56.2083H38.5417C39.5715 56.2083 40.5335 56.7024 41.107 57.5248L44.326 62.1576L51.1987 48.9663C51.7044 48.0019 52.7127 47.3748 53.8381 47.3333C55.0344 47.3067 56.0211 47.8422 56.6007 48.7652L64.9535 62.125H70.9167C72.6187 62.125 74 63.4503 74 65.0833C74 66.7163 72.6187 68.0417 70.9167 68.0417H63.2083C62.1261 68.0417 61.1209 67.4973 60.5659 66.6069L54.205 56.4361L47.4679 69.367C46.9746 70.3107 45.9972 70.932 44.8995 70.9971C44.8378 71 44.7731 71 44.7083 71Z" fill="black"/>
<path d="M27.7497 29.5833C36.2641 29.5833 43.1663 22.9609 43.1663 14.7917C43.1663 6.62245 36.2641 0 27.7497 0C19.2353 0 12.333 6.62245 12.333 14.7917C12.333 22.9609 19.2353 29.5833 27.7497 29.5833Z" fill="black"/>
<path d="M21.5833 59.1667C21.5833 54.2736 25.7335 50.2917 30.8333 50.2917H38.5417C40.1419 50.2917 41.6836 50.6851 43.0372 51.407L45.6857 46.3216C47.0332 43.7449 49.5985 42.0557 52.5122 41.606C49.7064 37.9229 45.2048 35.5 40.0833 35.5H15.4167C6.90358 35.5 0 42.1237 0 50.2917V59.9062C0 61.131 1.036 62.125 2.3125 62.125H22.1507C21.8053 61.1961 21.5833 60.208 21.5833 59.1667Z" fill="black"/>
</g>
<defs>
<clipPath id="clip0">
<rect width="74" height="71" fill="white"/>
</clipPath>
</defs>
</svg>
